<svg width="180" height="60" viewBox="0 0 180 60" xmlns="http://www.w3.org/2000/svg" role="img" aria-labelledby="title desc">
  <title id="title">FitForge Logo</title>
  <desc id="desc">Stylized F monogram with gradient bar</desc>
  <defs>
    <linearGradient id="g" x1="0%" y1="0%" x2="100%" y2="100%">
      <stop offset="0%" stop-color="#64f4ac"/>
      <stop offset="100%" stop-color="#5c7bff"/>
    </linearGradient>
  </defs>
  <rect x="8" y="8" width="44" height="44" rx="10" fill="#0f1729"/>
  <rect x="16" y="16" width="18" height="10" rx="5" fill="url(#g)"/>
  <rect x="16" y="32" width="30" height="10" rx="5" fill="url(#g)" opacity="0.9"/>
  <path d="M70 18h18c8 0 12 4 12 10s-4 10-12 10h-10v8H70V18zm18 14c3 0 4-2 4-4s-1-4-4-4h-10v8h10z" fill="#f7f9ff"/>
  <path d="M107 18h26v8h-18v4h16v8h-16v8h-8V18z" fill="#f7f9ff"/>
  <path d="M142 18h28v8h-10v22h-8V26h-10v-8z" fill="#f7f9ff"/>
</svg>
